# xmcd
#
# Track frame offsets:
#	150
#	21495
#	34976
#	64279
#	82474
#	109357
#	129839
#	141033
#	167152
#	183605
#	201276
#	216379
#
# Disc length: 3116 seconds
# Revision: 0
# Processed by: cddbd v1.5.2PL0 Copyright (c) Steve Scherf et al.
# Submitted via: dBpowerAMP V12.0
#
DISCID=c20c2a0c
DTITLE=HowellDevine - Jumps, Boogies and Wobbles
DYEAR=2013
DGENRE=Blues
TTITLE0=Rollin' and Tumblin'
TTITLE1=Guitar Rag
TTITLE2=Harmonica Wobble #2
TTITLE3=Shotgun Blues
TTITLE4=HowellDevine Boogie Woogie
TTITLE5=Help Me
TTITLE6=Soft Steel Piston
TTITLE7=Spoonful
TTITLE8=Mellow Down Easy
TTITLE9=KC Blues
TTITLE10=Mighty Long Time
TTITLE11=Write Me a Few of Your Lines
EXTD=
EXTT0=
EXTT1=
EXTT2=
EXTT3=
EXTT4=
EXTT5=
EXTT6=
EXTT7=
EXTT8=
EXTT9=
EXTT10=
EXTT11=
PLAYORDER=
